name analog
datacolumns 19
datarows 33
range 0.5065000000000002 0.5225000000000002
endheader
time	ground_force_vx	ground_force_vy	ground_force_vz	ground_force_px	ground_force_py	ground_force_pz	l_ground_force_vx	l_ground_force_vy	l_ground_force_vz	l_ground_force_px	l_ground_force_py	l_ground_force_pz	ground_torque_x	ground_torque_y	ground_torque_z	l_ground_torque_x	l_ground_torque_y	l_ground_torque_z
0.5065000000000002	-0.0	-0.0	-0.0	-3.373728036880493	-6.671774864196777	-800.383056640625	-0.0	-0.0	-0.0	-0.0	-0.0	-0.0	-0.0	-0.0	-0.0	-0.0	-0.0	-0.0
0.5070000000000002	-0.0	-0.0	-0.0	-3.20158314704895	-5.885935306549072	-800.632568359375	-0.0	-0.0	-0.0	-0.0	-0.0	-0.0	-0.0	-0.0	-0.0	-0.0	-0.0	-0.0
0.5075000000000003	-0.0	-0.0	-0.0	-3.3075904846191406	-5.255295753479004	-800.2788696289062	-0.0	-0.0	-0.0	-0.0	-0.0	-0.0	-0.0	-0.0	-0.0	-0.0	-0.0	-0.0
0.5080000000000002	-0.0	-0.0	-0.0	-3.48616623878479	-4.442619800567627	-797.9161376953125	-0.0	-0.0	-0.0	-0.0	-0.0	-0.0	-0.0	-0.0	-0.0	-0.0	-0.0	-0.0
0.5085000000000002	-0.0	-0.0	-0.0	-3.550727128982544	-2.7304797172546387	-797.7914428710938	-0.0	-0.0	-0.0	-0.0	-0.0	-0.0	-0.0	-0.0	-0.0	-0.0	-0.0	-0.0
0.5090000000000002	-0.0	-0.0	-0.0	-3.621640205383301	-2.413712501525879	-796.1103515625	-0.0	-0.0	-0.0	-0.0	-0.0	-0.0	-0.0	-0.0	-0.0	-0.0	-0.0	-0.0
0.5095000000000003	-0.0	-0.0	-0.0	-3.397352457046509	-1.180734634399414	-793.7117919921875	-0.0	-0.0	-0.0	-0.0	-0.0	-0.0	-0.0	-0.0	-0.0	-0.0	-0.0	-0.0
0.5100000000000002	-0.0	-0.0	-0.0	-4.174165725708008	-0.282360166311264	-791.565185546875	-0.0	-0.0	-0.0	-0.0	-0.0	-0.0	-0.0	-0.0	-0.0	-0.0	-0.0	-0.0
0.5105000000000002	-0.0	-0.0	-0.0	-4.003054141998291	0.8836984038352966	-793.9032592773438	-0.0	-0.0	-0.0	-0.0	-0.0	-0.0	-0.0	-0.0	-0.0	-0.0	-0.0	-0.0
0.5110000000000002	-0.0	-0.0	-0.0	-4.270453453063965	1.2478256225585938	-791.7987060546875	-0.0	-0.0	-0.0	-0.0	-0.0	-0.0	-0.0	-0.0	-0.0	-0.0	-0.0	-0.0
0.5115000000000003	-0.0	-0.0	-0.0	-4.53395938873291	2.398639678955078	-790.0322265625	-0.0	-0.0	-0.0	-0.0	-0.0	-0.0	-0.0	-0.0	-0.0	-0.0	-0.0	-0.0
0.5120000000000002	-0.0	-0.0	-0.0	-4.395444393157959	2.086160659790039	-788.2339477539062	-0.0	-0.0	-0.0	-0.0	-0.0	-0.0	-0.0	-0.0	-0.0	-0.0	-0.0	-0.0
0.5125000000000002	-0.0	-0.0	-0.0	-4.278013706207275	2.5725197792053223	-787.189453125	-0.0	-0.0	-0.0	-0.0	-0.0	-0.0	-0.0	-0.0	-0.0	-0.0	-0.0	-0.0
0.5130000000000002	-0.0	-0.0	-0.0	-4.367163181304932	2.4023728370666504	-786.1785888671875	-0.0	-0.0	-0.0	-0.0	-0.0	-0.0	-0.0	-0.0	-0.0	-0.0	-0.0	-0.0
0.5135000000000003	-0.0	-0.0	-0.0	-4.035619258880615	2.122227907180786	-786.5150146484375	-0.0	-0.0	-0.0	-0.0	-0.0	-0.0	-0.0	-0.0	-0.0	-0.0	-0.0	-0.0
0.5140000000000002	-0.0	-0.0	-0.0	-3.938157320022583	1.7740192413330078	-786.5487670898438	-0.0	-0.0	-0.0	-0.0	-0.0	-0.0	-0.0	-0.0	-0.0	-0.0	-0.0	-0.0
0.5145000000000002	-0.0	-0.0	-0.0	-3.479209899902344	1.0869874954223633	-787.6258544921875	-0.0	-0.0	-0.0	-0.0	-0.0	-0.0	-0.0	-0.0	-0.0	-0.0	-0.0	-0.0
0.5150000000000002	-0.0	-0.0	-0.0	-3.0642166137695312	0.8913040161132812	-787.55615234375	-0.0	-0.0	-0.0	-0.0	-0.0	-0.0	-0.0	-0.0	-0.0	-0.0	-0.0	-0.0
0.5155000000000003	-0.0	-0.0	-0.0	-3.229569673538208	0.013481318950653	-788.5439453125	-0.0	-0.0	-0.0	-0.0	-0.0	-0.0	-0.0	-0.0	-0.0	-0.0	-0.0	-0.0
0.5160000000000002	-0.0	-0.0	-0.0	-3.884085178375244	0.0091423094272613	-789.2847290039062	-0.0	-0.0	-0.0	-0.0	-0.0	-0.0	-0.0	-0.0	-0.0	-0.0	-0.0	-0.0
0.5165000000000002	-0.0	-0.0	-0.0	-3.666919469833374	-0.7928934097290039	-789.4674682617188	-0.0	-0.0	-0.0	-0.0	-0.0	-0.0	-0.0	-0.0	-0.0	-0.0	-0.0	-0.0
0.5170000000000002	-0.0	-0.0	-0.0	-3.826642036437988	-1.42608642578125	-789.0785522460938	-0.0	-0.0	-0.0	-0.0	-0.0	-0.0	-0.0	-0.0	-0.0	-0.0	-0.0	-0.0
0.5175000000000003	-0.0	-0.0	-0.0	-3.221143245697021	-2.006996393203736	-790.8456420898438	-0.0	-0.0	-0.0	-0.0	-0.0	-0.0	-0.0	-0.0	-0.0	-0.0	-0.0	-0.0
0.5180000000000002	-0.0	-0.0	-0.0	-3.2959370613098145	-1.5491483211517334	-794.0444946289062	-0.0	-0.0	-0.0	-0.0	-0.0	-0.0	-0.0	-0.0	-0.0	-0.0	-0.0	-0.0
0.5185000000000002	-0.0	-0.0	-0.0	-3.4693856239318848	-2.0843536853790283	-793.517578125	-0.0	-0.0	-0.0	-0.0	-0.0	-0.0	-0.0	-0.0	-0.0	-0.0	-0.0	-0.0
0.5190000000000002	-0.0	-0.0	-0.0	-3.40496826171875	-2.40652084350586	-794.2423706054688	-0.0	-0.0	-0.0	-0.0	-0.0	-0.0	-0.0	-0.0	-0.0	-0.0	-0.0	-0.0
0.5195000000000003	-0.0	-0.0	-0.0	-3.647513866424561	-2.3679308891296387	-796.3206176757812	-0.0	-0.0	-0.0	-0.0	-0.0	-0.0	-0.0	-0.0	-0.0	-0.0	-0.0	-0.0
0.5200000000000002	-0.0	-0.0	-0.0	-3.2269864082336426	-3.083644151687622	-796.7332763671875	-0.0	-0.0	-0.0	-0.0	-0.0	-0.0	-0.0	-0.0	-0.0	-0.0	-0.0	-0.0
0.5205000000000002	-0.0	-0.0	-0.0	-3.647237777709961	-3.0572614669799805	-797.8540649414062	-0.0	-0.0	-0.0	-0.0	-0.0	-0.0	-0.0	-0.0	-0.0	-0.0	-0.0	-0.0
0.5210000000000002	-0.0	-0.0	-0.0	-3.5526487827301025	-3.025181293487549	-796.15087890625	-0.0	-0.0	-0.0	-0.0	-0.0	-0.0	-0.0	-0.0	-0.0	-0.0	-0.0	-0.0
0.5215000000000003	-0.0	-0.0	-0.0	-2.975954532623291	-2.7683722972869877	-798.49755859375	-0.0	-0.0	-0.0	-0.0	-0.0	-0.0	-0.0	-0.0	-0.0	-0.0	-0.0	-0.0
0.5220000000000002	-0.0	-0.0	-0.0	-3.306192398071289	-3.292426109313965	-799.224853515625	-0.0	-0.0	-0.0	-0.0	-0.0	-0.0	-0.0	-0.0	-0.0	-0.0	-0.0	-0.0
0.5225000000000002	-0.0	-0.0	-0.0	-3.379069328308105	-2.7357418537139893	-798.3164672851562	-0.0	-0.0	-0.0	-0.0	-0.0	-0.0	-0.0	-0.0	-0.0	-0.0	-0.0	-0.0
